<svg viewBox="0 0 128.6 144.1" xmlns="http://www.w3.org/2000/svg"><g fill="#ff1900"><path d="M59.1 118.3a59.1 59.1 0 1 1 59.2-59.1 59.2 59.2 0 0 1-59.2 59zM59.1 8a51.1 51.1 0 1 0 51.2 51.1A51.2 51.2 0 0 0 59 8z"/><path d="M59.1 72.4A13.2 13.2 0 1 1 72.4 59 13.3 13.3 0 0 1 59 72.4zm0-18.5a5.2 5.2 0 1 0 5.3 5.2A5.2 5.2 0 0 0 59 54zM128.4 110.8a13.2 13.2 0 0 0-26 4.3l-39 16h-.2a7.1 7.1 0 1 0 3 7.5l39.6-16.3a12.7 12.7 0 0 0 2.2 1.8 13.2 13.2 0 0 0 18.3-3.5 13.2 13.2 0 0 0 2.1-9.8zm-8.7 5.4a5.2 5.2 0 1 1-5.3-8.1 5.5 5.5 0 0 1 1-.1 5.3 5.3 0 0 1 5.1 4.3 5.5 5.5 0 0 1 .1 1 5.2 5.2 0 0 1-.9 2.9z"/></g></svg>