<?xml version="1.0" encoding="utf-8"?>
<!-- Generator: Adobe Illustrator 16.0.0, SVG Export Plug-In . SVG Version: 6.00 Build 0)  -->
<!DOCTYPE svg PUBLIC "-//W3C//DTD SVG 1.1//EN" "http://www.w3.org/Graphics/SVG/1.1/DTD/svg11.dtd">
<svg version="1.1" id="Layer_1" xmlns="http://www.w3.org/2000/svg" xmlns:xlink="http://www.w3.org/1999/xlink" x="0px" y="0px"
	 width="25px" height="25px" viewBox="0 0 25 25" enable-background="new 0 0 25 25" xml:space="preserve">
<path fill="#FFFFFF" d="M0.484,6.466c0.039-0.091,0.104-0.183,0.183-0.275c0.157-0.144,0.354-0.209,0.576-0.209
	c0.222,0,0.418,0.065,0.576,0.209L12.618,16.99L23.26,6.348c0.156-0.157,0.354-0.235,0.575-0.235c0.223,0,0.419,0.078,0.576,0.235
	s0.235,0.354,0.235,0.576c0,0.223-0.078,0.419-0.235,0.576L13.193,18.717c-0.156,0.158-0.353,0.236-0.576,0.236
	c-0.222,0-0.419-0.078-0.576-0.236L0.667,7.369c-0.079-0.079-0.144-0.17-0.183-0.275C0.445,6.99,0.419,6.885,0.419,6.767
	C0.432,6.675,0.445,6.571,0.484,6.466z"/>
</svg>
