<svg enable-background="new 0 0 25 25" height="25" viewBox="0 0 25 25" width="25" xmlns="http://www.w3.org/2000/svg"><path d="m.484 6.466c.039-.091.104-.183.183-.275.157-.144.354-.209.576-.209s.418.065.576.209l10.799 10.799 10.642-10.642c.156-.157.354-.235.575-.235.223 0 .419.078.576.235s.235.354.235.576c0 .223-.078.419-.235.576l-11.218 11.217c-.156.158-.353.236-.576.236-.222 0-.419-.078-.576-.236l-11.374-11.348c-.079-.079-.144-.17-.183-.275-.039-.104-.065-.209-.065-.327.013-.092.026-.196.065-.301z" fill="#fff"/></svg>