<svg viewBox="0 0 128.63 144.1" xmlns="http://www.w3.org/2000/svg"><g fill="#ff1900" transform="translate(-307.87 -191.37)"><path d="m367 309.66a59.14 59.14 0 1 1 59.14-59.14 59.21 59.21 0 0 1 -59.14 59.14zm0-110.29a51.14 51.14 0 1 0 51.14 51.14 51.2 51.2 0 0 0 -51.14-51.14z"/><path d="m367 263.75a13.23 13.23 0 1 1 13.23-13.23 13.25 13.25 0 0 1 -13.23 13.23zm0-18.47a5.23 5.23 0 1 0 5.23 5.23 5.24 5.24 0 0 0 -5.23-5.23z"/><path d="m436.27 302.13a13.23 13.23 0 0 0 -26.09 4.37l-39 16-.12-.08a7.1 7.1 0 1 0 2.92 7.58l39.73-16.33a12.74 12.74 0 0 0 2.15 1.83 13.24 13.24 0 0 0 18.34-3.5 13.19 13.19 0 0 0 2.07-9.87zm-8.68 5.42a5.23 5.23 0 1 1 -5.3-8.09 5.52 5.52 0 0 1 1-.09 5.25 5.25 0 0 1 5.13 4.26 5.5 5.5 0 0 1 .09 1 5.2 5.2 0 0 1 -.92 2.92z"/></g></svg>