<svg data-name="Lager 1" xmlns="http://www.w3.org/2000/svg" viewBox="0 0 331 197.9"><path d="M331 146.4a5 5 0 0 0-.2-.8 4.8 4.8 0 0 0-.3-.9 4.6 4.6 0 0 0-.5-.7v-.1a4.9 4.9 0 0 0-.6-.7l-.5-.4-.2-.1h-.2a4.8 4.8 0 0 0-.8-.4 4.7 4.7 0 0 0-.8-.2l-7.6-1v-2.4a139.3 139.3 0 0 0-40-98 135.5 135.5 0 0 0-169.6-19.5H78.7a23 23 0 0 0-23 23v42.5a140 140 0 0 0-10 52l.1 5.2c-11.5 6-23 12-34.4 18.3a30.1 30.1 0 0 0-8 5.9 11.6 11.6 0 0 0-3.3 7.7 10.7 10.7 0 0 0 2.7 7 25.7 25.7 0 0 0 8.7 6 75.4 75.4 0 0 0 11 4.3 117 117 0 0 0 33.4 4.8c33.8 0 62-14.5 94.8-24.4a94 94 0 0 1 27.3-3.5c16.3 0 33.5 2.7 49.2 4.4a8909.6 8909.6 0 0 1 94.1 11.6 4.8 4.8 0 0 0 5.4-4.1l4.3-34.4a4.8 4.8 0 0 0 0-.9v-.2zm-13.3 29.4l-89.5-11c-15.4-1.7-33-4.5-50.3-4.5a107.7 107.7 0 0 0-27 3 527 527 0 0 0-13.6 4.3c-29 9.8-54 20.8-81.5 20.7a107.3 107.3 0 0 1-30.7-4.5 55 55 0 0 1-12-4.9 12 12 0 0 1-3-2.3 2.6 2.6 0 0 1-.5-.7v-.3c.3-.6 2-2.7 6.3-5 10.1-5.5 35.8-19 36-19l129.8.3c2.8 0 10.2.6 19.6 1.5 17.7 1.7 43 4.5 63.4 7l54 7zM65.2 88.6V44.2a13.5 13.5 0 0 1 13.4-13.4h34l1.2-.7a125.8 125.8 0 0 1 120.4-9.3h-51.7a119.1 119.1 0 0 0-85 35.7A122.4 122.4 0 0 0 62.1 142h-6.9v-3.3a130.3 130.3 0 0 1 9.5-49.3zm207.2-41.2a129.6 129.6 0 0 1 37.3 91.3v1.1l-46.6-6a4.8 4.8 0 0 0-5.4 4.2l-1.5 11.7c-6.7-.8-44.3-5-53.9-5.8s-16.9-1.5-20.5-1.6l-94.3-.3H72a112.7 112.7 0 0 1 32.4-78.7 109.5 109.5 0 0 1 78.2-32.9h69.2a128.3 128.3 0 0 1 20.7 17zM320.8 151l-1 6.9-53.7-7h-.4l1-6.9z" fill="#fc0"/></svg>