<svg data-name="Layer 1" xmlns="http://www.w3.org/2000/svg" viewBox="0 0 561.4 333.2"><path d="M488.5 123.5l2-6.9a119 119 0 0 0-82.4 5.7c-1.5-6.2-2.7-12-3.6-17.1h.4l-1.6-10.5h.6c.6 3.4 2.8 10.4 11.7 10.4h13.1V78.7h-13c-.2 0-10.8.1-11.9 10.5h-1.3l-4.8-31v-.1l-2.9.5L389 22l9.6-9.5a5.2 5.2 0 0 0 2.4-4 5 5 0 0 0-1.3-3.7 5.8 5.8 0 0 0-4-1.8h-.5l-12.4-.7v-.2l-39-2-.6 11 39 2v-.3h2c-3.3 3-6 6-5.8 7l6.6 40.4-2.2.4h-.1l.6 4.1-179 3.6-9.5-34.7c9-2.5 17.2-2.6 23.8-2.6 7.2 0 12.4 0 13.9-3.9 1-2.5.8-4.7-.5-6.5-2.8-4-10.7-5.8-26.6-5.8l-15.2.3a456.5 456.5 0 0 1-21.7 0h-1.3c-3.3-.3-7-.6-10.6-.6-7.4 0-12.1 1.3-14.8 4a9.2 9.2 0 0 0-2.2 7.3c.2 3.4 13.5 17.3 28.8 17.3a23.5 23.5 0 0 0 12.1-3.4l4.1-2.2 9.6 34.9-15.4 28.7-11-9a2.5 2.5 0 0 0-1.7-.6H55.6a2.5 2.5 0 0 0-2 1.1l-3 4.5a3.7 3.7 0 0 0-3.7-2.6h-1a3.8 3.8 0 0 0-4 4v12.2a3.8 3.8 0 0 0 4 4h1a4.4 4.4 0 0 0 1.8-.4l7.1 12.3a113.2 113.2 0 0 0-13.2 9.4 115.2 115.2 0 0 0-38.1 58.4A118.6 118.6 0 0 0 0 230.6l7.5-.3A107.7 107.7 0 0 0 213.3 270l13.5 4a29.6 29.6 0 0 0 3 2l-5.5 15h-9.7v5.7a4.7 4.7 0 0 0 4.9 5H237a4.7 4.7 0 0 0 4.9-5v-.7a4.7 4.7 0 0 0-4.9-5h-1.3l4.1-11.3a32.4 32.4 0 0 0 6.5.6 33.2 33.2 0 0 0 26-53.9l118.2-118.8 1.4-.2c1.1 6.2 2.6 13.3 4.5 21A119.8 119.8 0 0 0 337.3 235l9-.3a107.7 107.7 0 1 0 142.2-111.1zM50.8 108l-.6-1.1.6-1 6.2-9.3h108.3l11.1 9.1L167 123a114.8 114.8 0 0 0-42-12.2h-.8a73 73 0 0 0-4.2-.3h-11.1l-2.6.2-1.2.1a112.7 112.7 0 0 0-45 13.4zm69 102.2l-3.4-.3v.1h-1.2a14.3 14.3 0 0 0-4.8.8l-37.7-65a90.3 90.3 0 0 1 82.7-1.2zm7.4 3.3l5.3.4 2.7 9.5-5.3-.8a15.8 15.8 0 0 0-3.5-7.4zm-12 102.5a90.4 90.4 0 0 1-46.9-167.7l37.7 65a15.8 15.8 0 0 0-5.7 12.3 15.6 15.6 0 0 0 10.5 14.9l85.7 24.7a90.5 90.5 0 0 1-81.2 50.8zm82.5-53.3l-77.6-22.4a15.2 15.2 0 0 0 8.2-7l75.3 11.8a89.6 89.6 0 0 1-5.9 17.6zm-66-55h-1l1 3.5-3-.2 33.8-62.5a90.7 90.7 0 0 1 42.1 62.8zm82.8 59.8q1.2-2.7 2.2-5.6a33.2 33.2 0 0 0 5.5 7.9zm12-72a118.4 118.4 0 0 0-52.4-68.5l23.4-43.2L233 212.6l-2.8-.1a119.5 119.5 0 0 0-3.7-17zm12.6 55.2l-2.5 6.8a14.3 14.3 0 0 1-4.3-7.9l6.8 1zm-4.6-11.7a14.2 14.2 0 0 1 4.6-4.3l1.4 5.3zm12.2 22.4l1.8-5.2a8.6 8.6 0 0 0 6.7-8.4 8.8 8.8 0 0 0-.6-3.4l4.3-4.4a14.2 14.2 0 0 1 1.9 7 14.4 14.4 0 0 1-14.2 14.4zm3.2-28.3a4.7 4.7 0 0 1 .5.2l-.4.3zm14.5-14l-2-1.1 6.3-17.3h4.1a4.7 4.7 0 0 0 4.9-5v-.7a4.7 4.7 0 0 0-4.9-4.9h-22.5v5.7a4.7 4.7 0 0 0 4.8 4.9h2.2l-5 13.6a33.6 33.6 0 0 0-6-.5h-1.8L207.4 79.1l177.7-3.5 3 19.3zm189.3 97A90.4 90.4 0 0 1 403 150.7c8.3 25.2 21.4 53 41.8 75a9 9 0 1 0 9-9.5h-.5c-19-21-31.3-47.8-39-72A90.4 90.4 0 1 1 453.7 316zM239.1 250.6v-.2.2z"/><path d="M250.3 233.1l-.3.4-.2-.5a4.7 4.7 0 0 1 .5.1zM239 250.4v.2h.2l-.1-.2zM50.8 105.8v2l-.6-1 .6-1z"/></svg>