<svg xmlns="http://www.w3.org/2000/svg" viewBox="0 0 112.2 112.2"><circle cx="56.1" cy="56.1" r="56.1" fill="#dc4e41"/><path d="M19.5 58.6a23.1 23.1 0 0 0 15.6 21.9c8.6 2.9 19.2.7 25-6.7 4.1-5.1 5.1-12 4.6-18.5h-22v7.9l13.2.1a12.8 12.8 0 0 1-7.5 8.8 14.6 14.6 0 0 1-9.8-27.5c4.7-1.7 9.6.2 13.6 2.7l5.9-6a23.1 23.1 0 0 0-16.6-5.8 23 23 0 0 0-22 23.1zM79.1 48.7v6.6h-6.7V62H79v6.6h6.7V62h6.6v-6.6h-6.6v-6.6H79z" fill="#dc4e41"/><g fill="#fff"><path d="M19.5 58.6a23 23 0 0 1 22-23c6-.6 12 1.8 16.6 5.6a105 105 0 0 1-5.9 6c-4-2.4-9-4.3-13.7-2.6A14.6 14.6 0 1 0 48.4 72c3.8-1.4 6.4-5 7.5-8.8l-13.3-.1v-7.9h22.1c.5 6.5-.5 13.4-4.6 18.5-5.8 7.4-16.4 9.6-25 6.7a23.1 23.1 0 0 1-15.6-21.9zM79.1 48.7h6.6v6.6h6.6V62h-6.6v6.6H79V62h-6.7v-6.6H79l.1-6.6z"/></g></svg>