<svg viewBox="0 0 309 240.9" xmlns="http://www.w3.org/2000/svg"><path d="M240.4 65.4h.5V30.3L210.6 0v79.3a38.8 38.8 0 0 1 29.8-14zm56.2 41.3l-26.8-26.5a41.3 41.3 0 0 1 8.9 25.7c0 21.1-18 38.9-37.8 38.9a39 39 0 0 1-30.3-14.3v80.1H0L30.3 241h210.6V161l2.7 2.7a39 39 0 0 0 27.6 11.4 39.3 39.3 0 0 0 37.8-38.9 41.3 41.3 0 0 0-12.4-29.5zm-201.5 70c21 0 34.8-6.1 42.4-19.8v16.7h33.2V37.4h-33.5v16.5c-8.8-13.5-23-20-42.8-20a65.5 65.5 0 0 0-50.5 21 71.6 71.6 0 0 0-19.5 50A69.8 69.8 0 0 0 95 176.7zm.5-111.4a40 40 0 0 1 38.3 40.6c0 21-18 38.8-37.8 38.8a39.2 39.2 0 0 1-39.3-40.3 38.9 38.9 0 0 1 38.8-39.1z"/></svg>