<svg viewBox="0 0 308.99 240.92" xmlns="http://www.w3.org/2000/svg"><path d="m240.39 65.36h.51v-35.07l-30.28-30.29v79.33a38.79 38.79 0 0 1 29.77-13.97zm56.23 41.35-26.82-26.47a41.26 41.26 0 0 1 8.9 25.7c0 21.06-18 38.82-37.79 38.82a39 39 0 0 1 -30.29-14.25v80.11h-210.62l30.27 30.3h210.63v-79.92l2.67 2.74a39 39 0 0 0 27.62 11.31c19.8 0 37.8-17.76 37.8-38.82a41.27 41.27 0 0 0 -12.37-29.52zm-201.49 69.94c21.05 0 34.75-6.09 42.35-19.79v16.74h33.2v-136.21h-33.44v16.49c-8.89-13.45-23.09-20-42.87-20-20.55 0-36.78 6.59-50.48 21-12.68 13.2-19.53 31-19.53 50 0 40.57 30.18 71.77 70.77 71.77zm.5-111.35c20 0 38.3 17.75 38.3 40.58 0 21.05-18 38.79-37.79 38.79-21.31 0-39.31-16.72-39.31-40.32a38.85 38.85 0 0 1 38.8-39.05z"/></svg>