<svg viewBox="0 0 192 192" xmlns="http://www.w3.org/2000/svg"><path d="M148.6 61.5h.3V39.9l-18.6-18.6v48.8a23.5 23.5 0 0 1 18.3-8.6zm34.6 25.4l-16.5-16.3a24.2 24.2 0 0 1-17.7 39.7 24 24 0 0 1-18.6-8.8v49.3H.8l18.6 18.6h129.5v-49.1l1.6 1.7a24 24 0 0 0 17 7 24.1 24.1 0 0 0 23.2-23.9c.1-6.9-2.6-13.4-7.5-18.2zm-123.9 43c12.9 0 21.4-3.7 26-12.2V128h20.4V44.3H85.2v10.1C79.7 46.2 71 42.1 58.8 42.1a40.4 40.4 0 0 0-31 12.9 44 44 0 0 0-12 30.7c0 25 18.5 44.2 43.5 44.2zm.3-68.4a24.6 24.6 0 0 1 23.6 25A24.2 24.2 0 0 1 60 110.4a24.2 24.2 0 0 1-24.2-24.8 23.8 23.8 0 0 1 23.8-24.1c-.1 0 0 0 0 0z" fill="#6ec81e"/></svg>