<?xml version="1.0" encoding="utf-8"?>
<!-- Generator: Adobe Illustrator 16.0.0, SVG Export Plug-In . SVG Version: 6.00 Build 0)  -->
<!DOCTYPE svg PUBLIC "-//W3C//DTD SVG 1.1//EN" "http://www.w3.org/Graphics/SVG/1.1/DTD/svg11.dtd">
<svg version="1.1" id="Layer_1" xmlns="http://www.w3.org/2000/svg" xmlns:xlink="http://www.w3.org/1999/xlink" x="0px" y="0px"
	 width="25.485px" height="35.185px" viewBox="474.515 282.408 25.485 35.185"
	 enable-background="new 474.515 282.408 25.485 35.185" xml:space="preserve">
<g>
	<g>
		<path d="M487.258,282.408c-7.026,0-12.743,5.717-12.743,12.742c0,8.721,11.403,21.521,11.889,22.062
			c0.456,0.508,1.252,0.508,1.708,0c0.485-0.54,11.889-13.341,11.889-22.062C500,288.125,494.284,282.408,487.258,282.408z
			 M487.258,301.562c-3.535,0-6.411-2.876-6.411-6.412c0-3.535,2.876-6.411,6.411-6.411c3.535,0,6.411,2.877,6.411,6.411
			C493.668,298.687,490.792,301.562,487.258,301.562z"/>
	</g>
</g>
</svg>
